<svg xmlns="http://www.w3.org/2000/svg" viewBox="0 0 860.97 261.45"><defs><style>.cls-1{fill:#42c3d7;}</style></defs><title>blueAsset 1</title><g id="Layer_2" data-name="Layer 2"><g id="Blue_version_Vintaged" data-name="Blue version Vintaged"><path class="cls-1" d="M666.69,249.87a9.84,9.84,0,0,1-4.76,1.12,10.35,10.35,0,0,1-4.4-1,10.91,10.91,0,0,1-3.56-2.66,12.91,12.91,0,0,1-2.38-4,15.61,15.61,0,0,1,0-10.22,12.36,12.36,0,0,1,2.41-4.06,10.9,10.9,0,0,1,8.21-3.62,10.53,10.53,0,0,1,4.34.84,8.63,8.63,0,0,1,3.16,2.41l6.72-5.49a13.69,13.69,0,0,0-2.91-2.74,16,16,0,0,0-3.39-1.79,18.48,18.48,0,0,0-3.58-1,20.56,20.56,0,0,0-3.5-.31,24.43,24.43,0,0,0-8.57,1.46A19.62,19.62,0,0,0,647.7,223a18.87,18.87,0,0,0-4.45,6.58,24,24,0,0,0,0,17.25,19,19,0,0,0,4.41,6.53c.12-.19.31-.32.3-.65h.84c.15.78-.35.84-.9.87a19.77,19.77,0,0,0,6.58,4,24.43,24.43,0,0,0,8.57,1.45,19.78,19.78,0,0,0,8-1.68,15.18,15.18,0,0,0,6.38-5.2l-7.28-5.44A9.41,9.41,0,0,1,666.69,249.87Zm-21.63-11.21h-.83v-.88h.83Zm14.54,13.19c.07-.49.41-.24.41,0C659.93,252.35,659.59,252.1,659.6,251.85Z"/><path class="cls-1" d="M716.75,223a19.53,19.53,0,0,0-6.78-4.17,25.85,25.85,0,0,0-17.13,0,19.62,19.62,0,0,0-6.78,4.17,18.87,18.87,0,0,0-4.45,6.58,24,24,0,0,0,0,17.25,19,19,0,0,0,4.45,6.58,19.62,19.62,0,0,0,6.78,4.17,26,26,0,0,0,17.13,0,19.53,19.53,0,0,0,6.78-4.17,19,19,0,0,0,4.45-6.58,24,24,0,0,0,0-17.25A18.87,18.87,0,0,0,716.75,223Zm-3.89,20.33a11.79,11.79,0,0,1-2.49,4,11.46,11.46,0,0,1-3.9,2.66,14,14,0,0,1-10.13,0,11.42,11.42,0,0,1-3.89-2.66,11.66,11.66,0,0,1-2.5-4,15.61,15.61,0,0,1,0-10.22,11.61,11.61,0,0,1,2.5-4.06,11.28,11.28,0,0,1,3.89-2.66,13.84,13.84,0,0,1,10.13,0,11.32,11.32,0,0,1,3.9,2.66,11.73,11.73,0,0,1,2.49,4.06,15.44,15.44,0,0,1,0,10.22Z"/><path class="cls-1" d="M0,216.79H.76a.87.87,0,0,1-.76.72v43.94H245.08c0-.25,0-.55,0-.8.67-.15.77.3.82.8H631.08V213.21H0Zm258.33,40.34c1.8.18-.44,2.55,0,0Zm44.86-25.95h-.83v-.88h.83Zm252.14,7v-.88c.89-.21.8.63.83,1.32C555.83,238.57,555.75,238.22,555.33,238.22Zm69.37-12.76c.22.23-.3.56-.41.44S624.59,225.34,624.7,225.46Zm-7.06-2.2c.15-.53,1.11-.35,1.25,0C619.26,224.22,617.37,224.28,617.64,223.26Zm-10.8,19.36c.22.22-.3.56-.41.44S606.73,242.5,606.84,242.62ZM586.9,254.05c1,.27,3-.55,3.33.44-.06,1.55-1.87,1.26-2.91,1.76A3,3,0,0,1,586.9,254.05Zm-.41.44c.21.23-.31.56-.42.44S586.37,254.37,586.49,254.49Zm-3.74,4.4h.83v.88h-.83ZM579,249.65c.21.23-.3.57-.42.44S578.89,249.53,579,249.65Zm-15.79,10.56c.68-.12.72.42,1.25.44C564.64,261.5,562.58,261.29,563.22,260.21Zm-7.89-31.67c1.5-.42.74,1.9.42,2.2C554.35,230.34,555.54,229.92,555.33,228.54Zm-1.24-2.64h.83v.88h-.83ZM538.3,229c.22.23-.3.56-.41.44S538.19,228.86,538.3,229Zm-9.55,8.8c.21.23-.3.56-.42.44S528.63,237.66,528.75,237.78Zm-9.56-18.47c.91-.08,1.33.35,1.25,1.31h-1.25ZM516.7,247h.83v.87h-.83Zm-2.91,10.11h.83V258h-.83Zm-22,2.64c0,.43-.51.34-.83.44C491,259.78,491.46,259.87,491.78,259.77Zm-2.49-41.34c-.08.49-.42.24-.42,0C489,217.93,489.29,218.18,489.29,218.43Zm-18.7,35.62c0,.43-.5.35-.83.44C469.77,254.07,470.27,254.15,470.59,254.05Zm-1.66-13.63h.83v.88h-.83Zm-6.23.44c.22.23-.3.56-.41.44S462.59,240.74,462.7,240.86Zm-1.24-5.28c1.79.18-.44,2.55,0,0Zm-5,21.55h.83V258h-.83Zm-.83,2.64c.83-.15,1.3.09,1.24.88h-1.24Zm-3.74-.44c.22.23-.3.56-.41.44S451.79,259.21,451.9,259.33Zm-6.64-9.24a.42.42,0,0,1,.83,0C445.72,250.37,445.34,250.63,445.26,250.09Zm-.42-33.3H446c-.12.25-.36.38-.36.76h-.83Zm-2.91,29.79c.22.22-.3.56-.41.44S441.82,246.45,441.93,246.58Zm-5.4-15.84c.22.23-.3.56-.41.44S436.42,230.62,436.53,230.74Zm-3.32,7.92c1.39-1.06-1,1.47,0,0Zm-1.66-10.12c0,.43-.51.34-.83.44C430.73,228.55,431.22,228.64,431.55,228.54Zm-6.23,2.64c1.53,1.34-1.26,1.48,0,0Zm.41,4.4a.42.42,0,0,1-.83,0C425.08,234.94,425.26,235.62,425.73,235.58Zm-5,2.2c.21.23-.3.56-.42.44S420.63,237.66,420.75,237.78Zm-2.49-.88c.86-.19,1.09.3,1.66.44.19,1.38-.36,2-1.66,1.76Zm.41,14.51h.83c.2.94-.59.84-1.24.88C418.33,251.94,418.67,251.86,418.67,251.41Zm-2.11-34.62c-.09.25-.28.16-.35,0Zm.45,2.52a2,2,0,0,1-.83-1.76C417.43,217.1,416.91,218.53,417,219.31Zm-7.48,24.19c.86.26,1.57.68,1.25,2.2h-1.66A3,3,0,0,1,409.53,243.5Zm-7.48-7.92c1.26-1.63,1.4,1.34,0,0Zm0-5.28c0,.43-.5.34-.83.44C401.23,230.31,401.73,230.4,402.05,230.3ZM383,241.74a2,2,0,0,1,2.07.88c.27,1.6-.86,1.73-2.07,1.76A2.25,2.25,0,0,1,383,241.74Zm-6.65,10.11c0,.43-.51.35-.83.44C375.48,251.87,376,252,376.3,251.85Zm-5-33.42c1.1-.14,1.37.6,1.25,1.75C371.47,220.32,371.2,219.58,371.31,218.43Zm-5,2.63c-.08.5-.42.25-.42,0C366,220.57,366.33,220.82,366.33,221.06Zm-17.44-3.95h.82V218h-.82Zm-3.74,5.71c.09-.69.47,0,.41.44C345.47,224,345.08,223.29,345.15,222.82ZM326,246.58c0,.42-.51.34-.83.44C325.22,246.59,325.72,246.67,326,246.58ZM323.55,251c1.39-1.06-1,1.48,0,0Zm-3.33-7.91c.22.22-.3.56-.41.44S320.11,242.94,320.22,243.06Zm-4.57,5.28c.22.22-.3.56-.41.44S315.54,248.21,315.65,248.34Zm-6.23-22.44c.22.23-.3.56-.41.44S309.31,225.78,309.42,225.9Zm-7.06,1.76a1.21,1.21,0,0,1,.83,1.32c-.67.13-.71-.41-1.25-.44C302,228.19,302.36,228.1,302.36,227.66Zm-7.48-7.48a1.87,1.87,0,0,0,1.25.44c-.08.36-.42.44-.41.88h-.84Zm-2.49,26.4c.22.22-.3.56-.41.44S292.28,246.45,292.39,246.58Zm-3.32,8.35c.33.09.41.44.83.44C289.68,256.41,287.93,255.64,289.07,254.93ZM273.7,234.7c1.39-1.06-1,1.48,0,0Zm-5,.88c.21.23-.31.56-.42.44S268.6,235.46,268.72,235.58Zm-9.14-6.16h-.83v-.88h.83Zm-1.25-2.64c1.39-1.06-1,1.48,0,0Zm-6.65,18.92c-1.78-1.5,1.83-1,1.25-2.64C254.44,244.26,251.66,244.61,251.68,245.7Zm-1.24-5.28c.25-.61,1.6-.07,1.66-.88.45.11.28.87.83.88-.3,1.62-1.25-.19-2.08.88-.54,1.89,2,.54,1.66,2.2-1.17.36-1.07-.62-2.07-.44ZM7.85,245.7c0-.43.51-.35.83-.44C8.67,245.68,8.17,245.6,7.85,245.7Zm54.42,5.71c-.22-.22.3-.56.41-.44S62.38,251.54,62.27,251.41Zm1.24,4c.08-.5.42-.24.42,0C63.85,255.87,63.51,255.62,63.51,255.37ZM184,245.7c-.22-.23.3-.57.41-.44S184.09,245.82,184,245.7Zm19.52-12.76a.42.42,0,0,1,.83,0C204.15,233.58,204,232.9,203.5,232.94Zm32-14.07a1.82,1.82,0,0,0-1.24-.44C234.37,217.22,235.68,217.5,235.48,218.87Zm-3.73,40c.35.08.39-.17.41-.44.81-.17.61,2-.41,1.32Zm-1.25-4.4c.21.23-.3.56-.42.44S230.39,254.37,230.5,254.49Zm-5.4-27.27c1.9.3-.34,2.67,0,0Zm-9.56,27.27c.22.23-.3.56-.41.44S215.43,254.37,215.54,254.49Zm-2.07,2.2c-.08.5-.42.25-.42,0C213.13,256.19,213.47,256.45,213.47,256.69Zm-10-30.35c.87-.18,1.1.3,1.66.44C205.29,227.56,202.83,227.57,203.5,226.34Zm-.42.44c-.11,1-1.11,1-1.66.44C201.54,226.2,202.53,226.21,203.08,226.78ZM196,234.26c-1.26,1.63-1.4-1.34,0,0Zm-1.24,14.08c.21.22-.3.56-.42.44S194.66,248.21,194.78,248.34Zm-9.14-6.16v2.64c-.67.65-2.09-.38-3.74,0,.3-2.08-.85-2.62-1.25-4C182.87,240.71,182.76,243,185.64,242.18Zm-7.06,10.55c1,1,.35,3.87-1.25,3.52C177,254.33,177.55,253.26,178.58,252.73Zm-2.5-6.15c.22.22-.3.56-.41.44S176,246.45,176.08,246.58Zm-3.74,12.75h1.25c.12.71-.39.76-.42,1.32h-.83Zm-5.4-20.67c-.07.5-.41.24-.41,0C166.61,238.16,167,238.41,166.94,238.66Zm-6.64,7.92c.21.22-.3.56-.42.44S160.18,246.45,160.3,246.58Zm-3.74-6.16c0,.43-.51.34-.83.44C155.74,240.43,156.24,240.52,156.56,240.42Zm-2.91-10.56c0,.43-.51.34-.83.44C152.83,229.87,153.33,230,153.65,229.86Zm-2.49.88a2,2,0,0,1,.83,1.76C150.74,232.94,151.25,231.52,151.16,230.74Zm-2.08,23.75c.22.23-.3.56-.41.44S149,254.37,149.08,254.49Zm-19.52,0c.53.61,2,.27,2.49.88-.27,1.32-1.43,1.71-2.91,1.76C128.46,256.45,129.29,255.42,129.56,254.49Zm-1.25-30.35c.22.23-.3.56-.41.44S128.2,224,128.31,224.14Zm-6.23,31.67c.22.23-.3.56-.41.44S122,255.69,122.08,255.81ZM120,238.22c.21.23-.3.56-.42.44S119.89,238.1,120,238.22Zm-4.58,14.95a2.58,2.58,0,0,1,2.08.44C117.59,254.33,114.8,254.5,115.43,253.17ZM112.11,229c.22.23-.3.56-.41.44S112,228.86,112.11,229Zm-10.38,15c0,.42-.51.34-.83.44C100.91,244,101.41,244,101.73,243.94Zm-5.82,7.47h.83v.88h-.83ZM83,244.82c-.08.5-.42.24-.42,0C82.7,244.32,83,244.57,83,244.82Zm-9.56-26.39c-.35-.08-.39.17-.41.44-.49-.08-.35-.81-.42-1.32C73.36,217.38,73.44,217.89,73.48,218.43ZM63.93,251c.21.23-.3.57-.42.44S63.81,250.85,63.93,251Zm-1.25-2.63c1.67.32,0,2.06-.83.87C62,248.74,62.68,248.92,62.68,248.34Zm-.83-27.28c1.4-1.06-1,1.48,0,0Zm.42,11c0,.43-.51.34-.83.44C61.45,232.07,61.94,232.16,62.27,232.06Zm-2.91,7c0,.43-.51.34-.83.44C58.54,239.11,59,239.2,59.36,239.1ZM58.53,247a.42.42,0,0,1-.83,0C57.88,246.38,58.06,247.06,58.53,247Zm-1.25,9.67c.22.23-.3.56-.41.44S57.17,256.57,57.28,256.69Zm-6.64-22.43c.21.23-.31.56-.42.44S50.52,234.14,50.64,234.26Zm-3.74,8.36c.21.22-.3.56-.42.44S46.78,242.5,46.9,242.62Zm-5.82,7c-1.54,1.54-2.11-1.19,0,0Zm-8.3-1.76c1.25-1.62,1.39,1.34,0,0Zm-4.16-20.23c.8-.85,2.54-.46,2.08,1.32H28.62ZM22.8,243.5c.22.22-.3.56-.41.44S22.69,243.37,22.8,243.5Zm-2.9-26.71h1a1.74,1.74,0,0,1-1,.32Zm-.83,3c.21.22-.3.56-.42.43S19,219.62,19.07,219.75Zm0,7.47c.21.23-.3.56-.42.44S19,227.1,19.07,227.22Zm-1.49-10.43a1,1,0,0,1-1,.32c0-.11,0-.21,0-.32Zm-7.24,3.83c.87.25.89.69.42,1.32H9.93C9.81,221.23,10.32,221.19,10.34,220.62Zm-2.9,4.84c.67-.12.71.42,1.24.44C8.85,226.76,6.79,226.55,7.44,225.46Z"/><polygon class="cls-1" points="839.5 241.92 856.69 241.92 856.69 233.85 839.5 233.85 839.5 226.46 857.7 226.46 857.7 218.4 830.76 218.4 830.76 258.05 858.71 258.05 858.71 249.98 839.5 249.98 839.5 241.92"/><polygon class="cls-1" points="762.28 258.05 771.01 258.05 771.01 242.59 787.53 242.59 787.53 234.53 771.01 234.53 771.01 226.46 788.88 226.46 788.88 218.4 762.28 218.4 762.28 258.05"/><polygon class="cls-1" points="804.22 241.92 821.41 241.92 821.41 233.85 804.22 233.85 804.22 226.46 822.42 226.46 822.42 218.4 795.48 218.4 795.48 258.05 823.43 258.05 823.43 249.98 804.22 249.98 804.22 241.92"/><polygon class="cls-1" points="729.07 258.05 737.8 258.05 737.8 242.59 754.33 242.59 754.33 234.53 737.8 234.53 737.8 226.46 755.67 226.46 755.67 218.4 729.07 218.4 729.07 258.05"/><path class="cls-1" d="M1.74,170.59c0,.19-.3.34-.67.36v5.43a.7.7,0,0,1,.49.33c.12.21,0,.36-.34.36H1.07v5.43a.34.34,0,0,1,.31.34.33.33,0,0,1-.31.34v8.09h36.8V72L121.2,191.26h35.39V5.94H120V125.21L36.45,5.94H1.07v164.3C1.44,170.25,1.74,170.4,1.74,170.59ZM142,149c-.29,0-.54-.17-.54-.36s.25-.36.54-.36.54.17.54.36S142.25,149,142,149Zm14.58,26.64c0,.2-.25.36-.54.36s-.54-.16-.54-.36.25-.36.54-.36S156.54,175.44,156.54,175.63ZM156,157.27c.12.19,0,.36-.32.36-.65,0-.74-.21-.22-.52A.38.38,0,0,1,156,157.27Zm-1.92-35.33c.07-.47.36-.85.66-.85.78,0,.65,1.42-.14,1.57C154.1,122.75,154,122.59,154.08,121.94ZM153.66,172a.34.34,0,0,1,.36.36.34.34,0,0,1-.36.36.34.34,0,0,1-.36-.36A.35.35,0,0,1,153.66,172Zm-.72-36.36a.36.36,0,0,1,.36.38c0,.22-.15.29-.36.16s-.36-.28-.36-.38S152.73,135.67,152.94,135.67Zm-3.26,21.24a.71.71,0,0,1,.56.36c.13.21,0,.36-.34.36s-.56-.15-.56-.36A.34.34,0,0,1,149.68,156.91ZM147.36,37.06c.29.9-.27,1.6-1,1.31a1.25,1.25,0,0,1-.58-1.13C145.74,36.09,147,36,147.36,37.06ZM146.1,175.27c0,.2-.25.36-.54.36s-.54-.16-.54-.36.25-.36.54-.36S146.1,175.08,146.1,175.27ZM144.41,157c.72-.17,1.23.11.86.48-.12.12-.5.09-.86-.06C143.8,157.18,143.8,157.16,144.41,157Zm-2.81-27.82c.51,0,.9.16.9.36s-.39.36-.9.36-.9-.16-.9-.36S141.1,129.19,141.6,129.19Zm-8.13,21.67c.54-.18,1,.18.64.51-.12.12-.41.09-.66-.07S133.11,151,133.47,150.86Zm-.87,28.73c.29,0,.54.17.54.36s-.25.36-.54.36-.54-.16-.54-.36S132.31,179.59,132.6,179.59Zm-2.7,1.08c.4,0,.72.17.72.36s-.32.36-.72.36-.72-.16-.72-.36S129.51,180.67,129.9,180.67Zm-4.82-29.16c.29,0,.44.17.32.36a.38.38,0,0,1-.54.17C124.34,151.72,124.43,151.51,125.08,151.51Zm-3.8,8.34a1,1,0,0,1,.81.27c.28.28.23.39-.16.39a1.17,1.17,0,0,1-.81-.27C121,160.1,121.06,159.91,121.28,159.85Zm-12.15-48.8c.28.28-.11,1.22-.51,1.22-.17,0-.32-.32-.32-.72C108.3,110.83,108.68,110.6,109.13,111.05ZM98.22,128.47a.34.34,0,0,1,.36.36.36.36,0,1,1-.72,0A.34.34,0,0,1,98.22,128.47Zm-4.75,19a1,1,0,0,1,1-.14c.43.17.49.36.21.64a1,1,0,0,1-1,.15C93.25,148,93.19,147.76,93.47,147.48Zm-24.79-69a.69.69,0,0,1,.56.36c.13.21,0,.36-.34.36s-.56-.15-.56-.36A.33.33,0,0,1,68.68,78.43ZM32.81,171.05c.72-.17,1.23.11.86.48-.12.12-.5.1-.86-.05C32.19,171.22,32.19,171.2,32.81,171.05Zm-.18,9.2c.67.43,0,.8-.94.55-.43-.11-.79-.35-.79-.52C30.9,179.86,32,179.84,32.63,180.25Zm-10.37-9.66a.35.35,0,0,1,.36.36.34.34,0,0,1-.36.36.34.34,0,0,1-.36-.36A.34.34,0,0,1,22.26,170.59Zm-2.2-18.47c.46-.45.94-.1.61.44a.5.5,0,0,1-.63.18C19.8,152.6,19.81,152.38,20.06,152.12Zm-3.2-4.57c.61,0,1.08.16,1.08.36,0,.52-.94.87-1.62.6C15.4,148.16,15.74,147.55,16.86,147.55Zm-7.92,14c.39,0,.72.15.72.33s-.33.24-.72.14-.72-.24-.72-.32S8.54,161.59,8.94,161.59Z"/><path class="cls-1" d="M181.66,189a2.65,2.65,0,0,0,1-.41c.43-.41.93-.44.92-.06s-1.17.85-1.87.91v1.83h2.77a.45.45,0,0,1-.17-.34c0-.38.26-.53.8-.45.78.12,1.07.53.84.79H306.35V154.71h-2.74l-.42.42c-.43.43-1,.66-1.2.51-.47-.29-.38-.68.09-.93H181.66Zm122.85-25.6a.34.34,0,0,1,.36.35.71.71,0,0,1-.36.55c-.21.13-.36,0-.36-.34S304.3,163.39,304.51,163.39ZM301.09,181c.29,0,.54.17.54.36s-.25.36-.54.36-.54-.16-.54-.36S300.8,181,301.09,181Zm-5.15.06c1,.14,1.28,1,.36,1a1.67,1.67,0,0,1-.93-.25C294.89,181.37,295.18,181,295.94,181.09Zm-5.65-6.18c.29,0,.54.17.54.36s-.25.36-.54.36-.54-.16-.54-.36S290,174.91,290.29,174.91Zm-1.08-1.8c.28,0,.54.17.54.36s-.26.36-.54.36-.54-.16-.54-.36S288.92,173.11,289.21,173.11Zm-4.68,8.28c.28,0,.54.17.54.36s-.26.36-.54.36-.54-.16-.54-.36S284.24,181.39,284.53,181.39Zm-4.14-15.84a.35.35,0,0,1,.36.36.34.34,0,0,1-.36.36.34.34,0,0,1-.36-.36A.34.34,0,0,1,280.39,165.55Zm-1.08,10.08a.37.37,0,0,1,.36.38c0,.22-.16.29-.36.16s-.36-.28-.36-.37S279.09,175.63,279.31,175.63Zm.19,11.88c.51,0,.83.17.71.36a1.16,1.16,0,0,1-.92.36c-.4,0-.7-.15-.7-.36S279,187.51,279.5,187.51Zm-5.05,1.8a.57.57,0,0,1,.54.54c0,.58-.42.74-.83.33S273.87,189.31,274.45,189.31Zm-10.62-2c.2-.12.36-.05.36.17a.36.36,0,0,1-.36.37c-.22,0-.36-.06-.36-.16S263.61,187.46,263.83,187.33Zm-1.25-28.26c.33,0,.47.15.35.36a.7.7,0,0,1-.56.36.33.33,0,0,1-.34-.36C262,159.22,262.26,159.07,262.58,159.07Zm-7.23,31c.1,0,.25.15.38.36s.05.36-.17.36a.35.35,0,0,1-.37-.36C255.19,190.18,255.25,190,255.35,190Zm-2.68-26.28a.35.35,0,0,1,.36.36.34.34,0,0,1-.36.36.34.34,0,0,1-.36-.36A.34.34,0,0,1,252.67,163.75Zm-2.52,20.52c.39,0,.72.17.72.36s-.33.36-.72.36-.72-.16-.72-.36S249.75,184.27,250.15,184.27Zm-1.26-22c.28,0,.54.17.54.36s-.26.36-.54.36-.54-.17-.54-.36S248.6,162.31,248.89,162.31ZM245.63,188c.47-.35.82-.41,1.06-.17.52.53-.32,1.24-1.12.94C244.94,188.56,244.94,188.54,245.63,188Zm-4.48-8.45c.21,0,.36.07.36.17s-.15.24-.36.37-.36.06-.36-.16A.36.36,0,0,1,241.15,179.59Zm-.36,9.72a.37.37,0,0,1,.36.38c0,.22-.16.29-.36.16s-.36-.28-.36-.37S240.57,189.31,240.79,189.31Zm-5.94-8.64c.28,0,.54.17.54.36s-.26.36-.54.36-.54-.16-.54-.36S234.56,180.67,234.85,180.67Zm-.54,3.6a.35.35,0,0,1,.36.36.34.34,0,0,1-.36.36.34.34,0,0,1-.36-.36A.34.34,0,0,1,234.31,184.27ZM233,176.71c.09,0,.25.15.38.36s.05.36-.17.36a.35.35,0,0,1-.37-.36C232.87,176.86,232.93,176.71,233,176.71Zm-3.4,7.56c.21,0,.36.07.36.17s-.15.24-.36.37-.36.06-.36-.16A.36.36,0,0,1,229.63,184.27ZM220.12,158c.29,0,.44.17.32.36a.38.38,0,0,1-.54.17C219.39,158.2,219.47,158,220.12,158Zm-1,13c.72,0,.92.8.49,2-.32.83-.48.93-.93.56C217.79,172.75,218.1,171,219.08,171Zm-.62,19.44a.36.36,0,0,1,.36.38c0,.22-.15.29-.36.16s-.36-.28-.36-.37S218.25,190.39,218.46,190.39ZM211.8,162c.29,0,.54.17.54.36s-.25.36-.54.36-.54-.16-.54-.36S211.52,162,211.8,162Zm-12,20.6c.44,0,.81.27.81.46s-.37.41-.81.47-.81-.08-.81-.47S199.29,182.47,199.83,182.55Zm-8-24.74c.21-.12.36-.05.36.16a.36.36,0,0,1-.36.38c-.21,0-.36-.06-.36-.16S191.61,157.94,191.82,157.81Zm-2,6.66c.29,0,.54.15.54.33,0,.47-.56.8-.86.5S189.27,164.47,189.84,164.47Zm-6.3,10.8c0,.2-.32.36-.72.36s-.72-.16-.72-.36.33-.36.72-.36S183.54,175.08,183.54,175.27Zm-.88-6.12c.51,0,.82.17.7.36a1.12,1.12,0,0,1-.91.36c-.4,0-.71-.15-.71-.36S182.16,169.15,182.66,169.15Z"/><path class="cls-1" d="M186.42,113c.47.3.47.4,0,.69l-.06,0a69.62,69.62,0,0,0,109.38,9.44c-.15-.11-.25-.22-.25-.3s.14-.16.36-.16a.37.37,0,0,1,.24.1A69.7,69.7,0,0,0,244.77,5.94,70.41,70.41,0,0,0,231,7.31a2.87,2.87,0,0,1-1.68.56,1.15,1.15,0,0,1-.41-.08,69.67,69.67,0,0,0-43.08,105.06A.9.9,0,0,1,186.42,113ZM304.51,80.23a.36.36,0,0,1,.36.38c0,.21-.16.28-.36.16s-.36-.28-.36-.38S304.29,80.23,304.51,80.23Zm0,29.16a.36.36,0,0,1,.36.38c0,.22-.16.28-.36.16s-.36-.28-.36-.38S304.29,109.39,304.51,109.39ZM298.19,91c.1,0,.25.14.38.36s.05.36-.16.36a.36.36,0,0,1-.38-.36C298,91.17,298.09,91,298.19,91Zm-2-43.2a.36.36,0,0,1,0,.72.36.36,0,1,1,0-.72Zm-70.71,66.7c-.42-.42,0-1,.72-1a.85.85,0,0,1,.8.61C227.17,114.79,226.07,115.07,225.52,114.53ZM233.23,131a.34.34,0,0,1-.36-.36.34.34,0,0,1,.36-.36.35.35,0,0,1,.36.36A.34.34,0,0,1,233.23,131Zm2.16,2.88a.34.34,0,0,1,.36-.36.35.35,0,0,1,.36.36.34.34,0,0,1-.36.36A.34.34,0,0,1,235.39,133.87Zm.72,6.48a.34.34,0,0,1-.36-.36.34.34,0,0,1,.36-.36.35.35,0,0,1,.36.36A.34.34,0,0,1,236.11,140.35Zm.91,1.44c-.32,0-.55-.15-.55-.36a.33.33,0,0,1,.34-.36.73.73,0,0,1,.56.36C237.49,141.64,237.35,141.79,237,141.79Zm1.25-10.8a.34.34,0,0,1-.36-.36.34.34,0,0,1,.36-.36.35.35,0,0,1,.36.36A.34.34,0,0,1,238.27,131Zm18.19-9c-.32,0-.55-.15-.55-.36a.33.33,0,0,1,.34-.36.73.73,0,0,1,.56.36C256.93,121.84,256.79,122,256.46,122Zm.89,6.12a.34.34,0,0,1-.36-.36.34.34,0,0,1,.36-.36.35.35,0,0,1,.36.36A.34.34,0,0,1,257.35,128.11Zm1.44,13.68a.34.34,0,0,1-.36-.36.34.34,0,0,1,.36-.36.35.35,0,0,1,.36.36A.34.34,0,0,1,258.79,141.79Zm.9-10.44c-.29,0-.54-.17-.54-.36s.25-.36.54-.36.54.17.54.36S260,131.35,259.69,131.35Zm1.62,1.44a.34.34,0,0,1-.36-.36.34.34,0,0,1,.36-.36.35.35,0,0,1,.36.36A.34.34,0,0,1,261.31,132.79Zm3.24-6.12c-.22,0-.36-.06-.36-.16s.14-.25.36-.38.36,0,.36.16A.36.36,0,0,1,264.55,126.67Zm.9-1.44c-.29,0-.54-.17-.54-.36s.25-.36.54-.36.54.17.54.36S265.73,125.23,265.45,125.23Zm10.26,0a.34.34,0,0,1-.36-.36.34.34,0,0,1,.36-.36.35.35,0,0,1,.36.36A.34.34,0,0,1,275.71,125.23Zm12.07-25.92c.33,0,.47.15.35.36a.7.7,0,0,1-.56.36.33.33,0,0,1-.34-.36C287.23,99.46,287.46,99.31,287.78,99.31Zm-1.27,13.32a.35.35,0,0,1,.36.36.34.34,0,0,1-.36.36.34.34,0,0,1-.36-.36A.34.34,0,0,1,286.51,112.63Zm-2.67,14.76c.29,0,.44.17.33.36a.38.38,0,0,1-.54.17C283.11,127.6,283.19,127.39,283.84,127.39ZM281.9,21.26c.68.23.79,1,.14,1a.57.57,0,0,1-.57-.58C281.47,21.37,281.66,21.18,281.9,21.26Zm-13.86-9c.9.17,1,1,.14,1-.43,0-.75-.24-.75-.56S267.68,12.2,268,12.27ZM246.82,15.5c.61.07,1,.34,1.1.72.12.71-.73,1.2-1.55.89a1,1,0,0,1-.54-1C245.83,15.54,246,15.41,246.82,15.5Zm-3.19,11c.41-.41,1.48-.07,1.48.47s-1.16.51-1.56.11C243.4,26.91,243.44,26.67,243.63,26.48ZM221.88,15.07a1.11,1.11,0,0,1,.83-.36c.54,0,.55,0,.07.36a2.16,2.16,0,0,1-.82.36C221.78,15.43,221.76,15.28,221.88,15.07Zm-3.42,23a.34.34,0,0,1,.36.36.34.34,0,0,1-.36.36.35.35,0,0,1-.36-.36A.34.34,0,0,1,218.46,38.11Zm26.31,4.38A33.24,33.24,0,0,1,277.06,68c.4,0,.61.26.34.53a.37.37,0,0,1-.21.06,32.73,32.73,0,0,1,.76,7,33.23,33.23,0,0,1-28.53,32.85.49.49,0,0,1,.21.19c.36.57,0,.8-.89.53-.41-.14-.72-.36-.74-.54-1.07.1-2.14.16-3.23.16a33.19,33.19,0,0,1,0-66.37ZM210.72,64.75c.29,0,.54.17.54.36s-.25.36-.54.36-.54-.17-.54-.36S210.44,64.75,210.72,64.75Zm-.36,11.52c.29,0,.54.17.54.36s-.25.36-.54.36-.54-.17-.54-.36S210.08,76.27,210.36,76.27Zm-6.66,38.52a.34.34,0,0,1,.36.36.34.34,0,0,1-.36.36.34.34,0,0,1-.36-.36A.35.35,0,0,1,203.7,114.79Zm-2.26-76.93a2.11,2.11,0,0,1,1.26.28c.46.25.64.5.39.58a2.06,2.06,0,0,1-1.26-.29C201.36,38.19,201.19,37.94,201.44,37.86Zm-1,80.17a.34.34,0,0,1,.36.36.34.34,0,0,1-.36.36.34.34,0,0,1-.36-.36A.35.35,0,0,1,200.46,118Zm-3.6-38.68a.37.37,0,0,1,.54.16c.12.19,0,.36-.32.36C196.43,79.87,196.35,79.66,196.86,79.35ZM190,67.68a.55.55,0,0,1,.38.47.56.56,0,0,1-.38.49c-.2.07-.38-.15-.38-.47S189.84,67.62,190,67.68ZM176,67.45c-.21-.13-.36-.28-.36-.38s.15-.16.36-.16a.36.36,0,0,1,.36.38C176.34,67.5,176.19,67.57,176,67.45Zm1.77,21.22a.67.67,0,0,1-.33-.56c0-.39.48-.45.83-.1S178.14,88.92,177.75,88.67Zm5.79,18.92a.34.34,0,0,1-.36-.36.35.35,0,0,1,.36-.36.34.34,0,0,1,.36.36A.34.34,0,0,1,183.54,107.59Zm0-42.48c-.39,0-.72-.16-.72-.36s.33-.36.72-.36.72.16.72.36S183.94,65.11,183.54,65.11Zm1.08,36.18a.71.71,0,0,1-.36-.56.34.34,0,0,1,.36-.34c.21,0,.36.23.36.56S184.83,101.42,184.62,101.29Z"/><path class="cls-1" d="M334,163a.21.21,0,0,1-.08.15v17.15c.52.09.95.66.65,1-.09.09-.36.08-.65,0v10h23.27a.64.64,0,0,1,.61-.51c.16,0,.3.24.31.51h12.62V173.11a.62.62,0,0,1-.48-.21c-.43-.43-.29-.87.29-.87a.58.58,0,0,1,.19,0v-9c-.42,0-.73-.17-.73-.35s.31-.31.73-.34V91.09l48.82,100.17H452L497.5,94v97.29h36.8V5.68h-36L435.46,139.9,370,5.68H334V162.89A.19.19,0,0,1,334,163Zm196-22.68a.67.67,0,0,1-.55.36.33.33,0,0,1-.35-.36c0-.21.24-.36.56-.36S530.18,140.14,530.05,140.35Zm1.27,4.5c-.22-.13-.36-.28-.36-.38s.14-.16.36-.16a.36.36,0,0,1,.35.38C531.67,144.91,531.52,145,531.32,144.85Zm.57-38.37c-.36,0-.58-.07-.47-.18a.73.73,0,0,1,.69,0C532.4,106.37,532.32,106.45,531.89,106.48ZM532,76.27c0,.19-.25.36-.53.36s-.54-.17-.54-.36.25-.36.54-.36S532,76.08,532,76.27Zm-.71-29.16c0,.19-.26.36-.55.36s-.53-.17-.53-.36.25-.36.53-.36S531.32,46.92,531.32,47.11Zm-.79-13.75a1,1,0,0,1-.78.73c-.57.11-.61,0-.26-.63C530,32.56,530.69,32.49,530.53,33.36Zm-1-22.25c.39,0,.72.24.72.54s-.33.54-.72.54-.73-.24-.73-.54S529.12,11.11,529.52,11.11Zm-1.81,15.3c.21-.12.36-.06.36.16a.36.36,0,0,1-.36.38c-.21,0-.36-.07-.36-.16S527.5,26.54,527.71,26.41Zm-.94,67.78c1.35,1.28.78,1.34-.71.08A3.77,3.77,0,0,1,525,93.08C525,92.67,525.48,93,526.77,94.19Zm-4.46,6.2c.22,0,.36.07.36.16s-.14.25-.36.38-.36,0-.36-.16A.36.36,0,0,1,522.31,100.39Zm-.07,24.37a1,1,0,0,1-1.4,1,1.17,1.17,0,0,1-.25-1A.83.83,0,0,1,522.24,124.76Zm-3-37.37c.36-.6.81-.36,1.35.76s.33,1.39-.77.35C519.43,88.09,519.17,87.59,519.29,87.39Zm-3.55,13c.76,0,.87.09.45.36a2.26,2.26,0,0,1-1,.36.41.41,0,0,1-.45-.36C514.75,100.55,515.2,100.39,515.74,100.39Zm-.48,37.8c1,0,1.58,1,.75,1.31a1.26,1.26,0,0,1-1.08-.24C514.16,138.62,514.29,138.19,515.26,138.19Zm-1.59,38.16a.34.34,0,0,1,.36.36.34.34,0,0,1-.36.36.34.34,0,0,1-.36-.36A.35.35,0,0,1,513.67,176.35Zm-4-26.28a.34.34,0,0,1,.36.36.34.34,0,0,1-.36.36.34.34,0,0,1-.36-.36A.35.35,0,0,1,509.71,150.07ZM508.49,140c.29,0,.44.17.32.36a.38.38,0,0,1-.54.17C507.76,140.2,507.84,140,508.49,140Zm-1.8-65.49c.65.54.11,1.26-.72.94-.32-.12-.58-.37-.58-.57C505.39,74.25,506.14,74,506.69,74.5Zm-7.09-7.59a1.42,1.42,0,0,1,.75.54c.35.43.33.54-.09.54a1.26,1.26,0,0,1-.77-.25C499.14,67.39,499.2,66.91,499.6,66.91Zm-9-6.12c.43,0,.87.71.61,1-.1.1-.36.07-.58-.07C490.17,61.4,490.14,60.79,490.6,60.79Zm-.51,22.9c.72-.72,1.26-.77,1.26-.11s-1.26,1.76-1.58,1.44S489.48,84.3,490.09,83.69ZM489,76.27c.29,0,.54.17.54.36s-.25.36-.54.36-.54-.17-.54-.36S488.73,76.27,489,76.27Zm-.54,13.32a.36.36,0,0,1,0,.72.36.36,0,0,1,0-.72Zm-2.88-39.24a.36.36,0,1,1,0,.72.36.36,0,1,1,0-.72Zm-.72,39.06c.22-.13.36-.07.36.14a.71.71,0,0,1-.36.58c-.21.13-.36.07-.36-.14A.73.73,0,0,1,484.87,89.41Zm-2.52-2.34c.22,0,.36.07.36.16s-.14.25-.36.38-.36,0-.36-.16A.36.36,0,0,1,482.35,87.07Zm-3.42,30.24c.29,0,.54.17.54.36s-.25.36-.54.36-.54-.17-.54-.36S478.65,117.31,478.93,117.31Zm-.88-33.91c-.2.07-.38-.15-.38-.47s.18-.55.38-.49a.55.55,0,0,1,.38.47A.56.56,0,0,1,478.05,83.4Zm-.38-28.73c.4,0,.72.24.72.54,0,.54-.78.72-1.22.29S477,54.67,477.67,54.67Zm-2.34,1.44c.29,0,.54.17.54.36s-.25.36-.54.36-.54-.17-.54-.36S475.05,56.11,475.33,56.11Zm-5.76,91.08c.29,0,.54.17.54.36s-.25.36-.54.36-.54-.17-.54-.36S469.28,147.19,469.57,147.19ZM468,108c0,.21-.23.36-.56.36s-.46-.15-.34-.36a.73.73,0,0,1,.56-.36A.33.33,0,0,1,468,108Zm-.9-19.44c.29,0,.54.17.54.36s-.25.36-.54.36-.54-.17-.54-.36S466.76,88.51,467.05,88.51Zm-2.34,64.08c.22,0,.36.07.36.16s-.14.25-.36.38-.36.06-.36-.16A.36.36,0,0,1,464.71,152.59ZM464,135c.22,0,.36.07.36.16s-.14.25-.36.38-.36.06-.36-.16A.36.36,0,0,1,464,135Zm-.54,6.48a.73.73,0,0,1,.56-.36.33.33,0,0,1,.34.36c0,.21-.23.36-.56.36S463.33,141.64,463.45,141.43Zm-.54-1.8a.34.34,0,0,1,.36.36.34.34,0,0,1-.36.36.34.34,0,0,1-.36-.36A.35.35,0,0,1,462.91,139.63ZM460,97c.21-.12.36,0,.36.16a.36.36,0,0,1-.36.38c-.21,0-.36-.06-.36-.16S459.82,97.1,460,97Zm-1.44,5c.21-.12.36,0,.36.36s-.15.48-.36.36-.36-.27-.36-.36S458.38,102.14,458.59,102Zm-3.49,18.28c.72-.17,1.23.11.86.48-.12.12-.5.09-.86-.06C454.49,120.46,454.49,120.44,455.1,120.29Zm-1.19,20.78a.34.34,0,0,1,.36.36.34.34,0,0,1-.36.36.34.34,0,0,1-.36-.36A.35.35,0,0,1,453.91,141.07Zm-1.83,48c.54-.18,1,.18.64.52-.12.11-.41.08-.66-.08S451.72,189.14,452.08,189Zm-.69-39a.36.36,0,0,1-.36.38c-.21,0-.36-.06-.36-.16s.15-.25.36-.38S451.39,149.84,451.39,150.05Zm-1.08-41.38a.34.34,0,0,1,.36.36.34.34,0,0,1-.36.36A.34.34,0,0,1,450,109,.35.35,0,0,1,450.31,108.67Zm-.54,11.88a.93.93,0,0,1,.74-.36c.29,0,.52.16.52.36s-.34.36-.74.36S449.66,120.74,449.77,120.55Zm-.54,9.72c.21,0,.36.24.36.56s-.15.47-.36.34a.71.71,0,0,1-.36-.56A.34.34,0,0,1,449.23,130.27Zm-2.66,43.56c.29,0,.44.17.32.36a.38.38,0,0,1-.54.17C445.83,174,445.92,173.83,446.57,173.83Zm-1.69-7.66c.45-.46.93-.11.6.43a.49.49,0,0,1-.62.18C444.62,166.64,444.62,166.42,444.88,166.17Zm-3.51-32.33a1.09,1.09,0,0,1,.63-.63c.27-.1.41,0,.32.32a1.09,1.09,0,0,1-.63.63C441.4,134.25,441.27,134.11,441.37,133.84Zm-7.62,48.63c.4,0,.72.17.72.36a.74.74,0,0,1-1.08.55C432.79,183,433,182.47,433.75,182.47Zm-2.88-8.28a.34.34,0,0,1-.36.36.34.34,0,0,1-.36-.36.35.35,0,0,1,.36-.36A.34.34,0,0,1,430.87,174.19Zm-1.51-29.59a.67.67,0,0,1,.79-.11c.29.17.31.37.07.61a.65.65,0,0,1-.79.11C429.14,145,429.12,144.84,429.36,144.6Zm.11,17.46a.62.62,0,0,1-.72.08.9.9,0,0,1,.18-1.51C429.47,160.45,429.91,161.62,429.47,162.06Zm-.59-12.71a.38.38,0,0,1-.17.54c-.19.12-.36,0-.36-.32C428.35,148.92,428.56,148.83,428.88,149.35Zm-2.11,3.46c.79-.3.86-.27.86.32,0,.3-.32.54-.72.54C426.05,153.67,426,153.12,426.77,152.81Zm-5.44-18.22c.29,0,.54.17.54.36s-.25.36-.54.36-.54-.17-.54-.36S421,134.59,421.33,134.59Zm-1.26,4.86c.21-.12.36,0,.36.34s-.15.56-.36.56a.33.33,0,0,1-.36-.34A.73.73,0,0,1,420.07,139.45ZM416.83,108c.21,0,.36.24.36.56s-.15.47-.36.34a.71.71,0,0,1-.36-.56A.34.34,0,0,1,416.83,108Zm-.54,51.12c.29,0,.54.15.54.33a1.42,1.42,0,0,1-.54.75c-.46.37-.54.33-.54-.32C415.75,159.4,416,159.07,416.29,159.07Zm-.9,4.68c.19,0,.36.26.36.54s-.17.54-.36.54-.36-.25-.36-.54S415.2,163.75,415.39,163.75Zm0,5.4a.34.34,0,0,1,.36.36.34.34,0,0,1-.36.36.34.34,0,0,1-.36-.36A.35.35,0,0,1,415.39,169.15Zm-4,2.33c0,.09-.14.24-.36.37s-.36.06-.36-.16a.37.37,0,0,1,.36-.38C411.29,171.31,411.43,171.38,411.43,171.48Zm-.72-18.17a.34.34,0,0,1,.36.36.36.36,0,0,1-.72,0A.34.34,0,0,1,410.71,153.31Zm-2.34-9c.29,0,.54.17.54.36s-.25.36-.54.36-.54-.17-.54-.36S408.08,144.31,408.37,144.31Zm-2.63-24.91c.23-.68,1-.8,1-.14a.57.57,0,0,1-.58.57C405.85,119.83,405.66,119.64,405.74,119.4Zm-.22-18.61c.34.56-.39,1.2-1.07.94a.9.9,0,0,1-.58-.76C403.87,100.32,405.14,100.18,405.52,100.79Zm-1.47-12.28c.29,0,.54.17.54.36s-.25.36-.54.36-.54-.17-.54-.36S403.76,88.51,404.05,88.51Zm-4,41.22c-.11.29-.34.54-.51.54s-.21-.25-.11-.54.35-.54.51-.54S400.14,129.44,400,129.73Zm-.85-6.82a.38.38,0,0,1,.54.16c.12.19,0,.36-.32.36C398.76,123.43,398.67,123.22,399.19,122.91Zm-5.54-11c.13-.24.36-.24.61,0,.45.45.11.93-.43.6A.47.47,0,0,1,393.65,111.86Zm-5.76-23c.28,0,.44.17.32.36a.37.37,0,0,1-.54.16C387.15,89.08,387.24,88.87,387.89,88.87Zm-6.5-22.68c.32,0,.47.15.34.36a.69.69,0,0,1-.56.36.33.33,0,0,1-.34-.36C380.83,66.34,381.06,66.19,381.39,66.19Zm-2.54-9c.29,0,.54.17.54.36s-.25.36-.54.36-.54-.17-.54-.36S378.56,57.19,378.85,57.19ZM371.47,66c.21-.12.36-.05.36.16a.36.36,0,0,1-.36.38c-.22,0-.36-.06-.36-.16S371.25,66.14,371.47,66Zm-1.26,48.42c.29,0,.54.17.54.36s-.25.36-.54.36-.54-.17-.54-.36S369.92,114.43,370.21,114.43Zm-1.44,56.88c.29,0,.54.17.54.36s-.25.36-.54.36-.54-.16-.54-.36S368.48,171.31,368.77,171.31Zm-2.3-126.72c.16-.47.64-.55.69-.11,0,.15-.15.31-.41.4S366.38,44.84,366.47,44.59Zm-.9,112c.28,0,.43.17.32.36a.38.38,0,0,1-.54.17C364.83,156.76,364.92,156.55,365.57,156.55Zm-2.38-99.72a.36.36,0,1,1-.36.36A.34.34,0,0,1,363.19,56.83Zm-.2,90.72c.1,0,.25.15.38.36s.05.36-.16.36a.36.36,0,0,1-.38-.36C362.83,147.7,362.89,147.55,363,147.55Zm-.72-18.72c.1,0,.25.15.38.36s.05.36-.16.36a.36.36,0,0,1-.38-.36C362.11,129,362.17,128.83,362.27,128.83Zm-3.11-37.37c.24-.08.43.11.43.43a.57.57,0,0,1-.58.58C358.36,92.47,358.47,91.69,359.16,91.46ZM358.51,124c.21-.12.36,0,.36.16a.36.36,0,0,1-.36.38c-.22,0-.36-.06-.36-.16S358.29,124.1,358.51,124Zm-.36,29.34a.34.34,0,0,1,.36.36.36.36,0,1,1-.72,0A.34.34,0,0,1,358.15,153.31Zm-.36,6.12a.34.34,0,0,1,.36.36.36.36,0,0,1-.72,0A.34.34,0,0,1,357.79,159.43Zm-2.3,15.48c-.65,0-.74-.21-.22-.52a.38.38,0,0,1,.54.16C355.92,174.75,355.77,174.91,355.49,174.91Zm.5-97.2a.36.36,0,1,1-.36.36A.34.34,0,0,1,356,77.71Zm-.18,78.84c.5,0,.9.16.9.36,0,.4-1.21.48-1.58.11S354.87,156.55,355.81,156.55Zm-2.7-81.36c0,.19-.25.36-.54.36s-.54-.17-.54-.36.25-.36.54-.36S353.11,75,353.11,75.19Zm-1.26-29.52a.69.69,0,0,1,.56-.36.33.33,0,0,1,.34.36c0,.21-.23.36-.56.36S351.72,45.88,351.85,45.67Zm-2.34,117c.4,0,.72.17.72.36s-.32.36-.72.36-.72-.16-.72-.36S349.11,162.67,349.51,162.67ZM348.27,167a.37.37,0,0,1,.54-.15.4.4,0,1,1-.54.15Zm-.72,11.16a.37.37,0,0,1,.54-.15.4.4,0,1,1-.54.15Zm.16,5.41c.21,0,.36.07.36.17s-.15.24-.36.37-.36.06-.36-.16A.36.36,0,0,1,347.71,183.55Zm.18,6.12c.29,0,.54.17.54.36s-.25.36-.54.36-.54-.16-.54-.36S347.6,189.67,347.89,189.67ZM346.45,21.55c.29,0,.54.17.54.36s-.25.36-.54.36-.54-.17-.54-.36S346.16,21.55,346.45,21.55Zm-2.23,56.62c.72-.17,1.23.11.86.48-.12.12-.5.09-.86-.06C343.6,78.34,343.6,78.31,344.22,78.17Zm-2.63,34.46a.35.35,0,0,1,.36.36.34.34,0,0,1-.36.36.34.34,0,0,1-.36-.36A.34.34,0,0,1,341.59,112.63ZM339,78.14a1.67,1.67,0,0,1,1.25.25c.65.66,0,.91-1.08.4l-1-.5Zm-2.28,60.41c.29,0,.54.17.54.36s-.25.36-.54.36-.54-.17-.54-.36S336.44,138.55,336.73,138.55Zm-.18,20.88a.35.35,0,0,1,.36.36.34.34,0,0,1-.36.36.34.34,0,0,1-.36-.36A.34.34,0,0,1,336.55,159.43Z"/><path class="cls-1" d="M614.67,122l23,69,67,.29-8.56-21.4a.33.33,0,0,1-.31-.35.31.31,0,0,1,.09-.19L628.2,0,552,191.26l36.7-.29Zm56.87,61.94a.69.69,0,0,1-.56.36.33.33,0,0,1-.34-.36c0-.21.23-.36.56-.36S671.66,183.7,671.54,183.91Zm15.3,6.48a.34.34,0,0,1-.36-.36.36.36,0,1,1,.72,0A.34.34,0,0,1,686.84,190.39Zm8.08-9.72c.1,0,.25.15.38.36s.05.36-.16.36a.36.36,0,0,1-.38-.36C694.76,180.82,694.83,180.67,694.92,180.67Zm-7.72-10.08c.4,0,.72.17.72.36s-.32.36-.72.36-.72-.16-.72-.36S686.8,170.59,687.2,170.59ZM686.12,163a.34.34,0,0,1,.36.36.36.36,0,0,1-.72,0A.34.34,0,0,1,686.12,163Zm-.83,17.07c.35.34-.29.93-1,.93-.36,0-.68-.15-.68-.32C683.6,180.31,685,179.81,685.29,180.1ZM680,186.79a.34.34,0,0,1,.36.36.36.36,0,0,1-.72,0A.34.34,0,0,1,680,186.79Zm-4.32-45.36c.22,0,.36.07.36.16s-.14.25-.36.38-.36.06-.36-.16A.36.36,0,0,1,675.68,141.43Zm-3.24,13c.22,0,.36.07.36.16s-.14.25-.36.38-.36.06-.36-.16A.36.36,0,0,1,672.44,154.39Zm-1.37,23.69c-.24.08-.43-.11-.43-.43a.57.57,0,0,1,.58-.58C671.87,177.07,671.76,177.85,671.07,178.08Zm-.21-7.13c.65,0,.54.78-.15,1-.24.08-.43-.11-.43-.43A.57.57,0,0,1,670.86,171ZM667,126.31a.34.34,0,0,1,.36.36.36.36,0,0,1-.72,0A.34.34,0,0,1,667,126.31Zm-11.88,45a.34.34,0,0,1,.36.36.36.36,0,1,1-.72,0A.34.34,0,0,1,655.16,171.31Zm-.52,6.12c.26-.43,1.24-.43,1.24,0a.74.74,0,0,1-1.08.55A.38.38,0,0,1,654.64,177.43ZM653.39,176c.09-.25.25-.42.4-.4.44.06.36.55-.11.7C653.43,176.37,653.31,176.25,653.39,176Zm-.59-42.55a.6.6,0,0,1,.49.4c.07.21-.15.39-.47.39s-.55-.18-.49-.39A.56.56,0,0,1,652.8,133.44Zm-.52,15.64a1.32,1.32,0,0,1,.39-1c.66-.41.76.14.19,1l-.58.83Zm-1.36,2.22c.42-.72.84-1.15.92-.94.17.5-.93,2.59-1.36,2.59S650,152.81,650.92,151.3Zm-1.16,2.55c.22-.13.36-.07.36.15a.7.7,0,0,1-.36.57c-.22.13-.36.07-.36-.14A.71.71,0,0,1,649.76,153.85Zm-1.08-58.14a.36.36,0,1,1,0,.72.36.36,0,1,1,0-.72ZM647,152c.72-.17,1.23.11.86.48-.12.12-.5.09-.86-.06C646.37,152.14,646.37,152.12,647,152Zm-3,36.62a.34.34,0,0,1-.36.36.34.34,0,0,1-.36-.36.34.34,0,0,1,.36-.36A.35.35,0,0,1,644,188.59ZM643.1,142c.32-.12.54,0,.54.32a.54.54,0,0,1-.54.52c-.29,0-.54-.15-.54-.32S642.81,142.13,643.1,142Zm-5.22,35.4a.35.35,0,0,1,.36.36.34.34,0,0,1-.36.36.34.34,0,0,1-.36-.36A.34.34,0,0,1,637.88,177.43Zm-1.08-5.76a.35.35,0,0,1,.36.36.34.34,0,0,1-.36.36.34.34,0,0,1-.36-.36A.34.34,0,0,1,636.8,171.67ZM635.36,180a.34.34,0,0,1-.36.36.34.34,0,0,1-.36-.36.34.34,0,0,1,.36-.36A.35.35,0,0,1,635.36,180Zm-1.33-47a.71.71,0,0,1,.68,0c.3.11.22.19-.22.22S633.91,133.05,634,132.94Zm-1.19-25.35a.34.34,0,0,1,.36.34.71.71,0,0,1-.36.56c-.21.13-.36,0-.36-.34S632.63,107.59,632.84,107.59ZM630.21,164c-.12.12-.41.09-.67-.07s-.34-.33,0-.44C630.1,163.28,630.55,163.64,630.21,164Zm-.61-18.38a.38.38,0,0,1,.54.16c.11.19,0,.36-.33.36C629.17,146.11,629.08,145.9,629.6,145.59Zm-7.38-8.84c.11.2-.13.36-.52.36s-.74-.16-.74-.36.23-.36.52-.36A.93.93,0,0,1,622.22,136.75ZM620.6,61.87a.34.34,0,0,1,.36.34.71.71,0,0,1-.36.56c-.21.13-.36,0-.36-.34S620.39,61.87,620.6,61.87Zm.18,68.4c.29,0,.54.17.54.36s-.25.36-.54.36-.54-.17-.54-.36S620.49,130.27,620.78,130.27Zm-2.16-52.2a.69.69,0,0,1,.56-.36.33.33,0,0,1,.34.36c0,.21-.24.36-.56.36S618.49,78.28,618.62,78.07Zm-2.68-15.48c.39,0,.63.17.52.36a.93.93,0,0,1-.74.36c-.29,0-.52-.16-.52-.36S615.54,62.59,615.94,62.59Zm-5.06,16.2a.34.34,0,0,1,.36.34.71.71,0,0,1-.36.56c-.21.13-.36,0-.36-.34S610.67,78.79,610.88,78.79Zm-1.41-1.08c.88,0,.76.83-.14,1-.36.07-.61-.11-.61-.44S609,77.71,609.47,77.71ZM609.29,108c.65,0,.54.78-.14,1-.24.08-.43-.11-.43-.43A.57.57,0,0,1,609.29,108Zm-10.11,47.16c.54,0,1.15.94.83,1.26-.1.1-.47.07-.8-.05C598.46,156,598.43,155.11,599.18,155.11ZM598,157.63c.58,0,.68.11.4.4a.72.72,0,0,1-.8.15C597,157.82,597.13,157.63,598,157.63Zm-1.51-47.34c.2-.12.36-.05.36.16a.36.36,0,0,1-.36.38c-.22,0-.36-.06-.36-.16S596.26,110.42,596.48,110.29ZM557.6,183.73c-.21.13-.36.06-.36-.16a.36.36,0,0,1,.36-.38c.21,0,.36.07.36.17S557.81,183.6,557.6,183.73Zm10.24-23.56a.37.37,0,0,1-.54.14.39.39,0,1,1,.54-.14Zm.74-4.7c-.29,0-.54-.17-.54-.36s.25-.36.54-.36.54.17.54.36S568.86,155.47,568.58,155.47ZM572.36,189a.34.34,0,0,1-.36-.36.34.34,0,0,1,.36-.36.35.35,0,0,1,.36.36A.34.34,0,0,1,572.36,189Z"/><path class="cls-1" d="M807,179.83c24.62-10.58,54-33.27,54-81.23s-29.34-70.46-54-81a149.55,149.55,0,0,0-53.22-11.4h-33.3V191.26h33.3A149.16,149.16,0,0,0,807,179.83Zm37.34-119.4a.56.56,0,0,1,.54.54c0,.58-.42.74-.83.32S843.77,60.43,844.35,60.43Zm-1.26,34c.2-.12.36,0,.36.16a.36.36,0,0,1-.36.38c-.22,0-.36-.06-.36-.16S842.87,94.58,843.09,94.45ZM775.4,186.07c-.21,0-.36-.06-.36-.16s.15-.25.36-.38.36-.05.36.17A.35.35,0,0,1,775.4,186.07Zm8.9.15a1.82,1.82,0,0,1-.26-1.08c0-1,.92-1.16,1.19-.15C785.41,185.71,784.71,186.64,784.3,186.22Zm24-26.79c-.28,0-.54-.17-.54-.36s.26-.36.54-.36.54.17.54.36S808.63,159.43,808.34,159.43Zm4.86-24.84c-.21,0-.36-.06-.36-.16s.15-.25.36-.38.36-.05.36.16A.36.36,0,0,1,813.2,134.59Zm5.76,16c-.2.13-.36.06-.36-.16a.36.36,0,0,1,.36-.38c.22,0,.36.07.36.16S819.18,150.48,819,150.61ZM757.29,42.89a108.91,108.91,0,0,1,32.27,7c23.13,9.26,34.86,25.65,34.86,48.69s-11.67,39.34-34.69,48.62a109.29,109.29,0,0,1-32.44,7.09Zm-2.23,77.3a.54.54,0,1,1-.54.54A.55.55,0,0,1,755.06,120.19Zm-.18,65.16a.34.34,0,0,1,.36.36.34.34,0,0,1-.36.36.34.34,0,0,1-.36-.36A.35.35,0,0,1,754.88,185.35Zm-20.52-43.56c-.19,0-.36-.25-.36-.54s.17-.54.36-.54.36.25.36.54S734.55,141.79,734.36,141.79Zm8.17,20.67c-.43-.43-.28-.87.29-.87a.55.55,0,0,1,.54.54C743.36,162.71,743,162.87,742.53,162.46Zm8.89-69.09a1.3,1.3,0,0,1-1.15.54c-.9,0-.91,0-.25-.51C751,92.69,751.68,92.68,751.42,93.37Z"/></g></g></svg>