<svg xmlns="http://www.w3.org/2000/svg" viewBox="0 0 859.73 249.75"><defs><style>.cls-1{fill:#fff;}</style></defs><title>Asset 2</title><g id="Layer_2" data-name="Layer 2"><g id="Final_Logo" data-name="Final Logo"><path class="cls-1" d="M179.36,179.89H297.91V150.12H179.36ZM292,165.38c0,.43-.51.34-.83.44C291.16,165.39,291.65,165.48,292,165.38Zm-3.74,5.72h.83V172h-.83Zm-8.31,2.2c-.18.64-.36,0-.83,0A.42.42,0,0,1,279.93,173.29ZM277,156.14c.21.23-.3.56-.42.44S276.91,156,277,156.14ZM243,170.66c-.47,1.39,0,1,0,2.64-1.17-.36-1.08.62-2.08.44C241.53,172.66,241.13,170.48,243,170.66Zm-4.57,6.16c-.08.5-.42.24-.42,0C238.06,176.31,238.39,176.57,238.39,176.81Zm-23.26-8.36c-.18.64-.37,0-.83,0A.42.42,0,0,1,215.13,168.46Zm-.83-3.08c0,.43-.51.34-.83.44C213.48,165.39,214,165.48,214.3,165.38Zm-.83-.88c.21.23-.3.56-.42.44S213.35,164.38,213.47,164.5Zm-9.14-13.64c-.08.5-.42.24-.42,0C204,150.36,204.33,150.62,204.33,150.86Zm-15.79,1.76c-.08.5-.42.24-.42,0C188.21,152.12,188.55,152.38,188.54,152.62Z"/><path class="cls-1" d="M610.95,117.16l18.61,62.73h67.63l-5.1-12.74H692a2.64,2.64,0,0,1-.27-.9l-5.2-13a.41.41,0,0,1-.76-.18c.16-.57.32-.09.69,0L636.61,28.44c-.2,0-.37-.16-.32-.8L625.34.26l-71.6,179.63h32.33Zm54.88,51.3c-.74-.32-.06-.8,0-1.32C666.57,167.46,665.89,167.94,665.82,168.46Zm18.69.44c-.19.64-.37,0-.83,0A.42.42,0,0,1,684.52,168.9Zm-15.79-21.55h1.66c.42,1.32-.92.78-1.66.88Zm.83,5.28c0,.43-.51.34-.83.44C668.75,152.63,669.24,152.72,669.56,152.62Zm-4.15-35.19c.74-.06.88.54,1.66.44-.35.65-1.34.64-2.08.88A2.17,2.17,0,0,0,665.41,117.44ZM655,175.05c.07-.52.76-.37,1.25-.44C656.21,175.13,655.52,175,655,175.05Zm2.91-17.59a1.21,1.21,0,0,1,.83,1.32A1.21,1.21,0,0,1,657.93,157.46Zm.42-55c.21.23-.3.56-.42.44S658.23,102.36,658.35,102.48Zm-2.08,32.11c.19-.64.37,0,.83,0A.42.42,0,0,1,656.27,134.59Zm-.41-12.75c.21.23-.3.56-.42.44S655.74,121.71,655.86,121.83Zm.41,1.76c0,.43-.51.34-.83.44C655.45,123.6,655.95,123.69,656.27,123.59Zm-1.66-36.51h.83V88h-.83Zm2.08,40.9c-.29.87-1.11,1.17-2.08,1.32C654.42,127.94,655.5,127.9,656.69,128ZM650,117c.83-.15,1.3.09,1.25.88H650ZM648.8,91.92c.34.08.41.44.83.44-.08.36-.42.44-.42.88-.34-.08-.41-.44-.83-.44C648.46,92.45,648.8,92.37,648.8,91.92ZM643,45.74c-.08.5-.42.24-.42,0C642.64,45.24,643,45.5,643,45.74ZM640.9,117c-.91.08-1.32-.36-1.25-1.32C640.56,115.6,641,116,640.9,117Zm-1.66-66.86c.22.23-.3.56-.41.44S639.13,50,639.24,50.14Zm-3.74-8.8c0,.43-.51.34-.83.44C634.68,41.35,635.18,41.44,635.5,41.34ZM634.67,135c1,.35.4,2.72-.83,2.2C633.78,136.13,634.49,135.87,634.67,135Zm-3.32-52.34c1.39-1.06-1,1.48,0,0Zm-.42,51a.42.42,0,0,1-.83,0C630.29,133.07,630.47,133.75,630.93,133.71Zm-4.15-108.2c.23,1-.79.63-.83,1.32-.49-.07-.35-.8-.42-1.32ZM626,40.9c.21.23-.3.56-.42.44S625.83,40.78,626,40.9ZM614.32,90.16c0,.43-.51.34-.83.44C613.5,90.18,614,90.26,614.32,90.16Zm-1.66-18.47c0,.43-.51.34-.83.44C611.84,71.7,612.33,71.79,612.66,71.69Zm-4.57,44.42c.22.23-.3.56-.42.44S608,116,608.09,116.12ZM596,139c.83-.15,1.3.09,1.25.88H596ZM594,152.62c.22.23-.3.56-.42.44S593.85,152.5,594,152.62Z"/><path class="cls-1" d="M239.4,133.69A66.72,66.72,0,1,0,172.68,67,66.91,66.91,0,0,0,239.4,133.69Zm56.31-51.45c0,.46,1.06.16,1.25.44.07.11-.1.83,0,.88.39.18,1.33-.28,1.66,0,.57.48,0,2.15,1.24,1.76-.24.93-1,.09-1.24,0,0,0-1.22-.4-1.25-.44a1.17,1.17,0,0,1-.24-.48.54.54,0,0,1-.18,0C296.24,84.52,295.35,83.09,295.72,82.25ZM213.88,95c-.21-.23.3-.56.42-.44S214,95.12,213.88,95Zm18.69,24.63c-.21-.23.3-.56.42-.44S232.69,119.75,232.58,119.63ZM246.28,121c1.54,1.33-1.26,1.48,0,0Zm2.08-11.88c.08-.5.42-.24.41,0C248.7,109.58,248.36,109.32,248.36,109.08Zm15.37-2.64c.08-.5.42-.24.42,0C264.07,106.94,263.73,106.68,263.73,106.44Zm3.74-3.52h-.83c.08-.37-.16-.41-.42-.44C266.06,101.63,268.12,101.84,267.47,102.92Zm2.49,15h-.83c-.12-.71.39-.76.42-1.32h.83C270.49,117.27,270,117.31,270,117.87Zm12-18c.22.23-.3.56-.42.44S281.89,99.72,282,99.84Zm-9.55-62.46c-1.26,1.63-1.4-1.34,0,0ZM215.54,24.63c0,.43-.51.34-.83.44C214.73,24.64,215.22,24.73,215.54,24.63ZM239.4,30A36.78,36.78,0,0,1,275.59,59.4a3.57,3.57,0,0,1,.6,0v1.76l-.29,0a37.78,37.78,0,0,1,.45,5.82,37,37,0,1,1-37-37ZM200.18,15.83c.89-.21.79.63.83,1.32-.34-.08-.41-.44-.83-.44Zm-17,29.91c-1.13-1.34,1.26,1.2,0,0Zm4.57-18c0-.08,0-.15,0-.22.3-.47.61-.92.92-1.38a3,3,0,0,1,1.55-.15C190.59,27.82,189.21,27.83,187.71,27.71Z"/><path class="cls-1" d="M30,52.09l23.9,34.2c.15,0,.32,0,.45-.08a.33.33,0,0,1-.28.33l9.6,13.74c.2-.46.47-.84.64-1.32,1.32.36,1.54,1.89,2.08,3.08a1.34,1.34,0,0,1-1.2.42l54.1,77.42H149.6V.26H119.84V128L30.28.26H0V179.89H30Zm97-35.82c1.21-.65,1.21,2,0,1.32Zm0,42.22c1.39-1.06-1,1.48,0,0ZM120,171.1c.21.23-.3.56-.42.44S119.89,171,120,171.1Zm-1.25-4.4a1.15,1.15,0,0,1-1.25.88C117.32,166.64,118.11,166.74,118.76,166.7Zm-1.25-.88c.21.23-.3.56-.42.44S117.4,165.7,117.51,165.82ZM115,167.14a1.15,1.15,0,0,1-1.25.88C113.58,167.08,114.37,167.18,115,167.14ZM99.24,142.51c-.08.5-.42.24-.42,0C98.9,142,99.24,142.26,99.24,142.51ZM79.3,90.16c0,.43-.51.34-.83.44C78.48,90.18,79,90.26,79.3,90.16Zm1.25,23.75a3,3,0,0,1,.42,2.2c.91.28,1.32-1.25,1.25.44-2.68.47-4.89.56-5-2.64C77.89,113.2,79,114.31,80.54,113.92ZM67.67,90.6c-.08.5-.42.24-.42,0C67.33,90.1,67.67,90.36,67.67,90.6ZM63.1,89.28h.83v.88H63.1Zm-1.24,4.4V95a2.24,2.24,0,0,0-1.66-.44A1.8,1.8,0,0,1,61.85,93.68ZM59.36,70.37c.21.23-.3.56-.41.44S59.24,70.25,59.36,70.37ZM46.48,73.45h-.83V72.13c.67-.12.71.42,1.24.44C46.82,72.93,46.48,73,46.48,73.45Zm.41-31.23c0,1.25-1.77.85-1.66-.44C46.1,41.6,46.34,42.08,46.9,42.22ZM31.53,23.75c0,.43-.51.34-.83.44C30.71,23.76,31.2,23.85,31.53,23.75ZM.37,9.67c-.22-.23.3-.56.42-.44S.49,9.79.37,9.67Zm3.32,113c-1.26,1.63-1.4-1.34,0,0Zm.42,46.62c-.21-.23.3-.56.42-.44S4.23,169.46,4.11,169.34Zm9.56-55.42c-.22-.23.3-.56.42-.44S13.78,114,13.67,113.92Zm5-69.05c1.91.29-.33,2.66,0,0Zm3.74,27.71h.83v.88h-.83Zm1.92,40c-.76-.15-1.62-.2-1.51-1.29a2.26,2.26,0,0,1,1.51.15Z"/><path class="cls-1" d="M666.69,238.17a9.85,9.85,0,0,1-4.76,1.12,10.28,10.28,0,0,1-4.4-1,10.78,10.78,0,0,1-3.56-2.66,12.74,12.74,0,0,1-2.38-4,15.47,15.47,0,0,1,0-10.22,12.4,12.4,0,0,1,2.41-4.06,10.86,10.86,0,0,1,8.2-3.61,10.54,10.54,0,0,1,4.34.84,8.58,8.58,0,0,1,3.16,2.41l6.72-5.49a13.51,13.51,0,0,0-2.91-2.74,16,16,0,0,0-3.39-1.79,18.88,18.88,0,0,0-3.58-1,21,21,0,0,0-3.5-.31,24.45,24.45,0,0,0-8.57,1.46,19.65,19.65,0,0,0-6.78,4.17,18.92,18.92,0,0,0-4.45,6.58,24.1,24.1,0,0,0,0,17.25,18.92,18.92,0,0,0,4.41,6.53c.13-.19.31-.32.31-.64h.83c.16.77-.35.84-.89.86a19.62,19.62,0,0,0,6.58,4,24.42,24.42,0,0,0,8.57,1.46,19.75,19.75,0,0,0,8-1.68,15.16,15.16,0,0,0,6.38-5.21L670.1,235A9.48,9.48,0,0,1,666.69,238.17ZM645.06,227h-.83v-.88h.83Zm14.54,13.2c.08-.5.42-.24.42,0C659.93,240.65,659.59,240.4,659.6,240.15Z"/><path class="cls-1" d="M716.75,211.31a19.65,19.65,0,0,0-6.78-4.17,25.94,25.94,0,0,0-17.14,0,19.65,19.65,0,0,0-6.78,4.17,18.92,18.92,0,0,0-4.45,6.58,24.1,24.1,0,0,0,0,17.25,18.91,18.91,0,0,0,4.45,6.58,19.59,19.59,0,0,0,6.78,4.17,25.94,25.94,0,0,0,17.14,0,19.59,19.59,0,0,0,6.78-4.17,18.9,18.9,0,0,0,4.45-6.58,24.09,24.09,0,0,0,0-17.25A18.91,18.91,0,0,0,716.75,211.31Zm-3.89,20.33a11.75,11.75,0,0,1-2.49,4,11.37,11.37,0,0,1-3.89,2.66,14,14,0,0,1-10.14,0,11.36,11.36,0,0,1-3.89-2.66,11.73,11.73,0,0,1-2.49-4,15.47,15.47,0,0,1,0-10.22,11.69,11.69,0,0,1,2.49-4.06,11.38,11.38,0,0,1,3.89-2.66,14,14,0,0,1,10.14,0,11.39,11.39,0,0,1,3.89,2.66,11.71,11.71,0,0,1,2.49,4.06,15.47,15.47,0,0,1,0,10.22Z"/><path class="cls-1" d="M0,205.09H.76a.89.89,0,0,1-.76.72v43.94H245.08c0-.25,0-.55,0-.8.67-.15.77.29.82.8H631.08V201.51H0Zm258.33,40.34c1.8.18-.44,2.55,0,0Zm44.86-26h-.83v-.88h.83Zm252.14,7v-.88c.89-.21.79.63.83,1.32C555.83,226.87,555.75,226.51,555.33,226.52Zm69.37-12.75c.21.23-.3.56-.42.44S624.59,213.64,624.7,213.76Zm-7.06-2.2c.14-.53,1.11-.36,1.25,0C619.26,212.51,617.37,212.58,617.64,211.56Zm-10.8,19.35c.21.23-.3.56-.42.44S606.73,230.79,606.84,230.91ZM586.9,242.35c1,.27,3-.55,3.32.44-.06,1.55-1.86,1.25-2.91,1.76A3,3,0,0,1,586.9,242.35Zm-.42.44c.22.23-.3.56-.41.44S586.37,242.67,586.49,242.79Zm-3.74,4.4h.83v.88h-.83ZM579,238c.21.23-.3.56-.42.44S578.89,237.83,579,238Zm-15.79,10.56c.67-.12.72.42,1.25.44C564.64,249.8,562.58,249.59,563.22,248.51Zm-7.89-31.67c1.5-.42.74,1.9.42,2.2C554.35,218.64,555.54,218.22,555.33,216.84Zm-1.25-2.64h.83v.88h-.83Zm-15.78,3.08c.21.23-.3.56-.42.44S538.19,217.16,538.3,217.28Zm-9.56,8.8c.22.23-.3.56-.42.44S528.63,226,528.75,226.08Zm-9.55-18.47q1.36-.12,1.25,1.32h-1.25Zm-2.49,27.71h.83v.88h-.83Zm-2.91,10.12h.83v.88h-.83Zm-22,2.64c0,.43-.51.34-.83.44C491,248.08,491.46,248.17,491.78,248.07Zm-2.49-41.35c-.08.5-.42.24-.42,0C488.95,206.22,489.29,206.48,489.29,206.72Zm-18.69,35.63c0,.43-.51.34-.83.44C469.77,242.36,470.27,242.45,470.59,242.35Zm-1.66-13.63h.83v.88h-.83Zm-6.23.44c.21.23-.3.56-.42.44S462.59,229,462.7,229.15Zm-1.25-5.28c1.8.18-.44,2.55,0,0Zm-5,21.55h.83v.88h-.83Zm-.83,2.64c.83-.15,1.3.09,1.24.88h-1.24Zm-3.74-.44c.21.23-.3.56-.42.44S451.79,247.51,451.9,247.63Zm-6.65-9.24a.42.42,0,0,1,.83,0C445.72,238.66,445.34,238.92,445.26,238.39Zm-.42-33.3H446c-.12.25-.36.37-.36.75h-.83Zm-2.91,29.78c.21.23-.3.56-.42.44S441.82,234.75,441.93,234.87ZM436.53,219c.22.23-.3.56-.42.44S436.42,218.92,436.53,219ZM433.21,227c1.39-1.06-1,1.48,0,0Zm-1.66-10.12c0,.43-.51.34-.83.44C430.73,216.85,431.22,216.94,431.55,216.84Zm-6.23,2.64c1.53,1.33-1.26,1.48,0,0Zm.42,4.4a.42.42,0,0,1-.83,0C425.08,223.24,425.26,223.92,425.73,223.88Zm-5,2.2c.21.23-.3.56-.42.44S420.63,226,420.75,226.08Zm-2.49-.88c.87-.19,1.1.3,1.66.44q.29,2.07-1.66,1.76Zm.41,14.52h.83c.2.94-.59.84-1.24.88C418.33,240.23,418.67,240.15,418.67,239.71Zm-2.11-34.62c-.09.25-.28.16-.35,0Zm.45,2.51a2,2,0,0,1-.83-1.76C417.43,205.4,416.91,206.82,417,207.6Zm-7.48,24.19c.86.26,1.57.68,1.25,2.2h-1.66A3,3,0,0,1,409.53,231.79Zm-7.48-7.92c1.26-1.63,1.4,1.34,0,0Zm0-5.28c0,.43-.51.34-.83.44C401.23,218.61,401.73,218.7,402.05,218.6ZM382.95,230a2,2,0,0,1,2.08.88c.26,1.6-.86,1.73-2.08,1.76A2.25,2.25,0,0,1,382.95,230Zm-6.65,10.12c0,.43-.51.34-.83.44C375.48,240.16,376,240.25,376.3,240.15Zm-5-33.43c1.1-.13,1.36.61,1.25,1.76C371.47,208.62,371.2,207.87,371.31,206.72Zm-5,2.64c-.08.5-.42.24-.42,0C366,208.86,366.33,209.12,366.33,209.36Zm-17.45-4h.83v.88h-.83Zm-3.74,5.72c.09-.7.48,0,.42.44C345.47,212.26,345.08,211.58,345.15,211.12ZM326,234.87c0,.43-.51.34-.83.44C325.22,234.89,325.72,235,326,234.87Zm-2.49,4.4c1.4-1.06-1,1.48,0,0Zm-3.32-7.92c.21.23-.3.56-.41.44S320.11,231.23,320.22,231.35Zm-4.57,5.28c.21.23-.3.56-.42.44S315.54,236.51,315.65,236.63Zm-6.23-22.43c.21.23-.3.56-.42.44S309.31,214.08,309.42,214.2ZM302.36,216a1.21,1.21,0,0,1,.83,1.32c-.67.12-.72-.42-1.25-.44C302,216.48,302.36,216.4,302.36,216Zm-7.48-7.48a1.89,1.89,0,0,0,1.25.44c-.08.36-.42.44-.42.88h-.83Zm-2.49,26.39c.21.23-.3.56-.42.44S292.28,234.75,292.39,234.87Zm-3.32,8.36c.34.08.42.44.83.44C289.68,244.71,287.93,243.94,289.07,243.23ZM273.7,223c1.39-1.06-1,1.48,0,0Zm-5,.88c.21.23-.3.56-.42.44S268.6,223.76,268.72,223.88Zm-9.14-6.16h-.83v-.88h.83Zm-1.25-2.64c1.39-1.06-1,1.48,0,0ZM251.68,234c-1.78-1.5,1.83-1,1.25-2.64C254.44,232.56,251.66,232.91,251.68,234Zm-1.25-5.28c.26-.61,1.6-.07,1.66-.88.45.11.28.88.83.88-.3,1.62-1.25-.19-2.08.88-.54,1.9,2,.54,1.66,2.2-1.17.36-1.08-.62-2.08-.44ZM7.85,234c0-.43.51-.34.83-.44C8.67,234,8.17,233.89,7.85,234Zm54.42,5.72c-.21-.23.3-.56.42-.44S62.38,239.83,62.27,239.71Zm1.25,4c.08-.5.42-.24.41,0C63.85,244.17,63.51,243.91,63.51,243.67ZM184,234c-.21-.23.3-.56.42-.44S184.09,234.11,184,234Zm19.52-12.76a.42.42,0,0,1,.83,0C204.15,221.88,204,221.19,203.5,221.24Zm32-14.07a1.89,1.89,0,0,0-1.25-.44C234.37,205.51,235.68,205.79,235.48,207.16Zm-3.74,40c.36.08.39-.17.42-.44.81-.17.61,2-.42,1.32Zm-1.25-4.4c.21.23-.3.56-.42.44S230.39,242.67,230.5,242.79Zm-5.4-27.27c1.9.29-.33,2.66,0,0Zm-9.55,27.27c.21.23-.3.56-.41.44S215.43,242.67,215.54,242.79Zm-2.08,2.2c-.08.5-.42.24-.42,0C213.13,244.49,213.47,244.74,213.47,245Zm-10-30.35c.87-.19,1.1.3,1.66.44C205.29,215.86,202.83,215.87,203.5,214.64Zm-.42.44c-.12,1-1.11,1-1.66.44C201.54,214.5,202.53,214.51,203.08,215.08ZM196,222.56c-1.26,1.63-1.4-1.34,0,0Zm-1.24,14.07c.21.23-.3.56-.42.44S194.66,236.51,194.78,236.63Zm-9.14-6.16v2.64c-.67.66-2.08-.38-3.74,0,.3-2.07-.85-2.62-1.24-4C182.87,229,182.76,231.32,185.64,230.47ZM178.58,241c1,1,.35,3.87-1.25,3.52C177,242.62,177.55,241.55,178.58,241Zm-2.49-6.16c.21.23-.3.56-.42.44S176,234.75,176.08,234.87Zm-3.74,12.76h1.25c.12.71-.39.76-.42,1.32h-.83ZM166.94,227c-.08.5-.42.25-.42,0C166.61,226.46,166.95,226.71,166.94,227Zm-6.65,7.92c.22.23-.3.56-.42.44S160.18,234.75,160.3,234.87Zm-3.74-6.16c0,.43-.51.34-.83.44C155.74,228.73,156.24,228.81,156.56,228.72Zm-2.91-10.56c0,.43-.51.34-.83.44C152.83,218.17,153.33,218.26,153.65,218.16Zm-2.49.88a2,2,0,0,1,.83,1.76C150.74,221.24,151.25,219.82,151.16,219Zm-2.08,23.75c.22.23-.3.56-.42.44S149,242.67,149.08,242.79Zm-19.52,0c.53.61,2,.27,2.49.88-.27,1.32-1.43,1.71-2.91,1.76C128.46,244.74,129.29,243.72,129.56,242.79Zm-1.25-30.35c.21.23-.3.56-.41.44S128.2,212.32,128.31,212.44Zm-6.23,31.67c.21.23-.3.56-.42.44S122,244,122.08,244.11ZM120,226.52c.21.23-.3.56-.42.44S119.89,226.39,120,226.52Zm-4.57,15a2.59,2.59,0,0,1,2.08.44C117.59,242.63,114.8,242.8,115.43,241.47Zm-3.32-24.19c.22.23-.3.56-.42.44S112,217.16,112.11,217.28Zm-10.38,15c0,.43-.51.34-.83.44C100.91,232.25,101.41,232.33,101.73,232.23Zm-5.82,7.48h.83v.88h-.83ZM83,233.11c-.08.5-.42.24-.42,0C82.7,232.61,83,232.87,83,233.11Zm-9.56-26.39c-.35-.08-.39.17-.42.44-.49-.07-.35-.8-.42-1.32C73.36,205.68,73.44,206.19,73.48,206.72Zm-9.55,32.55c.22.23-.3.56-.41.44S63.81,239.15,63.93,239.27Zm-1.25-2.64c1.67.32,0,2.06-.83.88C62,237,62.68,237.21,62.68,236.63Zm-.83-27.27c1.39-1.06-1,1.48,0,0Zm.41,11c0,.43-.51.34-.83.44C61.45,220.37,61.94,220.46,62.27,220.36Zm-2.91,7c0,.43-.51.34-.83.44C58.54,227.41,59,227.49,59.36,227.39Zm-.83,7.92a.42.42,0,0,1-.83,0C57.88,234.67,58.06,235.36,58.53,235.31ZM57.28,245c.21.23-.3.56-.41.44S57.17,244.87,57.28,245Zm-6.65-22.43c.21.23-.3.56-.42.44S50.52,222.44,50.64,222.56Zm-3.74,8.36c.22.23-.3.56-.41.44S46.78,230.79,46.9,230.91Zm-5.82,7c-1.55,1.53-2.11-1.2,0,0Zm-8.31-1.76c1.26-1.63,1.4,1.34,0,0ZM28.62,216c.8-.85,2.54-.46,2.08,1.32H28.62ZM22.8,231.79c.22.23-.3.56-.42.44S22.69,231.67,22.8,231.79Zm-2.91-26.7h1a1.82,1.82,0,0,1-1,.31Zm-.83,3c.21.23-.3.56-.42.44S19,207.92,19.07,208Zm0,7.48c.21.23-.3.56-.42.44S19,215.4,19.07,215.52Zm-1.49-10.43a1,1,0,0,1-1,.31c0-.11,0-.21,0-.31Zm-7.24,3.83c.86.25.88.69.42,1.32H9.93C9.81,209.53,10.32,209.48,10.34,208.92Zm-2.91,4.84c.67-.12.72.42,1.25.44C8.85,215.05,6.79,214.84,7.44,213.76Z"/><polygon class="cls-1" points="839.5 230.22 856.69 230.22 856.69 222.15 839.5 222.15 839.5 214.76 857.7 214.76 857.7 206.69 830.76 206.69 830.76 246.34 858.71 246.34 858.71 238.28 839.5 238.28 839.5 230.22"/><path class="cls-1" d="M297.14,84.4c.14-.07,0-.15,0,0Z"/><polygon class="cls-1" points="762.28 246.34 771.01 246.34 771.01 230.89 787.53 230.89 787.53 222.82 771.01 222.82 771.01 214.76 788.88 214.76 788.88 206.69 762.28 206.69 762.28 246.34"/><path class="cls-1" d="M859.73,90.07C859.73.51,755.29.51,755.29.51h-30V179.89h30S859.73,179.89,859.73,90.07Zm-4.07,6.69c1-.18.9.8,2.07.44C857.86,98.34,854.93,98.73,855.66,96.76Zm-10-21.11c.21.23-.3.56-.42.44S845.57,75.53,845.69,75.65Zm-4.57,46.62c.21.23-.3.56-.42.44S841,122.15,841.12,122.27Zm-83.49,29.47c.1-.77.71-1,1.66-.88C759.48,152.23,758.24,152.43,757.63,151.74Zm1.25,11.44c.1-.77.71-1,1.66-.88C760.43,163.07,759.82,163.3,758.87,163.18Zm17,4.84c-.21-.23.3-.56.42-.44S776,168.14,775.9,168Zm8.72-20.23c0-.43.51-.34.83-.44C785.45,147.77,784.95,147.68,784.63,147.78Zm8.31,5.28v-1.32C794.15,151.1,794.15,153.71,792.94,153.06Zm14.12-5.72c-.16-.85,1.89-.64,1.25.44h-.83C807.55,147.41,807.31,147.37,807.06,147.34Zm1.25,1.32c0-.43.51-.34.83-.44C809.12,148.65,808.63,148.56,808.31,148.66Zm7.06-6.16c-.22-.23.3-.56.42-.44S815.48,142.63,815.37,142.51Zm3.74,7.92c-.22-.23.3-.56.42-.44S819.22,150.54,819.1,150.42Zm6.23-3.08c.48-1.18,2.2,0,1.66,1.32C825.66,149,826.14,147.52,825.34,147.34Zm1.25,2.2c.1-.77.72-1,1.66-.88C828.44,150,827.2,150.24,826.58,149.54Zm8.31-24.19a.42.42,0,0,1-.83,0C834.24,124.71,834.42,125.4,834.89,125.35ZM817.44,30.79c.39.47,1.53.14,1.25,1.32Q817.07,32.5,817.44,30.79ZM791.27,13.19c.37-.73,2.4-.69,1.25.44C791.86,14.28,791,13.76,791.27,13.19ZM778.81,4c.21.23-.3.56-.42.44S778.7,3.83,778.81,4ZM755.29,30.28S830,30.28,830,90.07s-74.67,59.79-74.67,59.79ZM750.15,3.08c.21.23-.3.56-.42.44S750,3,750.15,3.08Zm-.42,74.33c-1.28-1.59.78-2.72,2.08-1.76C751.48,76.62,751,77.41,749.74,77.41Zm1.66-51.46c-.19-.94.59-.84,1.25-.88A1.15,1.15,0,0,1,751.4,25.95Z"/><polygon class="cls-1" points="804.22 230.22 821.41 230.22 821.41 222.15 804.22 222.15 804.22 214.76 822.42 214.76 822.42 206.69 795.48 206.69 795.48 246.34 823.43 246.34 823.43 238.28 804.22 238.28 804.22 230.22"/><polygon class="cls-1" points="729.07 246.34 737.8 246.34 737.8 230.89 754.33 230.89 754.33 222.82 737.8 222.82 737.8 214.76 755.67 214.76 755.67 206.69 729.07 206.69 729.07 246.34"/><path class="cls-1" d="M360.23,67.23l54.92,112.65h28.23l5.11-10.94a2.21,2.21,0,0,1-1.56.83,1.71,1.71,0,0,1,0-2.2c1.43-.58.92.88,1.78.91l46.25-98.95V179.89h30V0H494.43L429,139.85,366.18,11.15a.92.92,0,0,1-.25-.51L360.74,0H330.2V179.89h30Zm164,3.58a1.15,1.15,0,0,1-1.24.88A1.15,1.15,0,0,1,524.18,70.81Zm-2.49,38.71c1.9.29-.33,2.66,0,0Zm-.42-61.58c-.37.27-.74.53-.83,0A.42.42,0,0,1,521.27,47.94Zm-1.66-22.87c-.08.37.16.41.41.44-.14.58-.73.69-.83,1.32-.56-.14-.35-1.1-.41-1.76Zm-8.72,114.8h.83v.88h-.83ZM509.64,168c-.08.5-.42.24-.42,0C509.3,167.52,509.64,167.77,509.64,168Zm-5-158.78c.22.23-.3.56-.42.44S504.54,9.11,504.65,9.23Zm0,117.44c.22.23-.3.56-.42.44S504.54,126.55,504.65,126.67Zm-2.08-6.16c0,.43-.51.34-.83.44C501.76,120.53,502.26,120.61,502.58,120.51Zm-1.24,18c.83-.15,1.3.09,1.24.88h-1.24Zm-.83-64.22c-.37.27-.74.53-.83,0A.42.42,0,0,1,500.5,74.33Zm-1.25,56.3c.22.23-.3.56-.42.44S499.14,130.51,499.26,130.63ZM498.42,29c.21.23-.3.56-.42.44S498.31,28.9,498.42,29Zm-3.74-18.91c-.19.64-.36,0-.83,0A.42.42,0,0,1,494.69,10.11Zm-16.2,69.06c0,.43-.51.34-.83.44C477.67,79.18,478.16,79.27,478.49,79.17Zm-14.12,53.66c.22.23-.3.56-.42.44S464.25,132.71,464.36,132.83Zm-2.08-24.63c.51-.31.91-.46.42,0S461.72,108.55,462.29,108.2Zm0,25.07c0,.43-.51.34-.83.44C461.47,133.28,462,133.37,462.29,133.27ZM460.21,97.2c-.35-.08-.39.17-.42.44-.49-.07-.35-.8-.42-1.32C460.09,96.16,460.16,96.67,460.21,97.2ZM459,137.67c-.08.5-.42.24-.42,0C458.62,137.17,459,137.42,459,137.67Zm-7.48-11.44c.22.23-.3.56-.42.44S451.37,126.11,451.49,126.23Zm-2.49,4.4c.21.23-.3.56-.42.44S448.88,130.51,449,130.63Zm-3.74-7.92c.21.23-.3.56-.42.44S445.14,122.59,445.26,122.71ZM433.63,157c-.19.64-.37,0-.83,0A.42.42,0,0,1,433.63,157Zm-10.39-24.19c2.43.59-1.51,2.08,0,0Zm-1.66,30.79h-.83v-.88h.83Zm-.41-11c.42,1.32-.92.78-1.66.88C419.6,152.73,420.21,152.5,421.16,152.62Zm-2.08,0c-.37.27-.74.53-.83,0A.42.42,0,0,1,419.08,152.62Zm-6.64-14.08c.21.23-.3.56-.42.44S412.32,138.43,412.44,138.55Zm.42,11.88c.19,1.35-1.05,1.18-1.23,2.14l-.8-1.73A2.6,2.6,0,0,1,412.86,150.42Zm-7.06-11v.47l-.4-.87A.74.74,0,0,1,405.79,139.43Zm-2.08-10.12h.83v.88h-.83Zm-10.8-39.15c-.08.5-.42.24-.41,0C392.58,89.66,392.92,89.92,392.92,90.16ZM379.21,58.06c.73-.14.74,2.46-.42,1.76C378.62,58.9,379.08,58.65,379.21,58.06ZM351,61.13c-.08.5-.42.24-.42,0C350.63,60.64,351,60.89,351,61.13ZM347.64,15a2,2,0,0,1-.83-1.76C348.06,12.75,347.54,14.17,347.64,15ZM342.85,33.7v-.56a.28.28,0,0,1,.22.28C343,33.66,342.94,33.72,342.85,33.7Zm4-8.64c1.17-.06,1.2,1.08,1.25,2.2C346.37,27.76,346,25.92,346.81,25.07Zm4.57,66.42c0,.43-.51.34-.83.44C350.56,91.5,351.05,91.58,351.38,91.48ZM351,176.37c-.22-.23.3-.56.42-.44S351.08,176.5,351,176.37Zm2.49-5.28c.08-.5.42-.24.42,0C353.79,171.59,353.45,171.34,353.45,171.1Zm.42-166.7H353V3.52h.83ZM358,153.5a.42.42,0,0,1,.83,0C358.49,153.77,358.11,154,358,153.5Z"/></g></g></svg>